<mxfile host="Electron" modified="2023-09-27T05:20:52.843Z" agent="Mozilla/5.0 (X11; Linux x86_64) AppleWebKit/537.36 (KHTML, like Gecko) draw.io/21.7.5 Chrome/114.0.5735.289 Electron/25.8.1 Safari/537.36" etag="A44o3QYHE1Xa2fYibzXv" version="21.7.5" type="device">
  <diagram name="Page-1" id="FupNze0QqECtXQrn74tL">
    <mxGraphModel dx="1832" dy="1938" grid="1" gridSize="10" guides="1" tooltips="1" connect="1" arrows="1" fold="1" page="0" pageScale="1" pageWidth="850" pageHeight="1100" math="0" shadow="0">
      <root>
        <mxCell id="0" />
        <mxCell id="1" parent="0" />
        <mxCell id="yxRPQ6G-XhHfgrl9xgfs-9" value="RenderTarget&amp;lt;TBD&amp;gt;" style="swimlane;fontStyle=0;childLayout=stackLayout;horizontal=1;startSize=30;horizontalStack=0;resizeParent=1;resizeParentMax=0;resizeLast=0;collapsible=1;marginBottom=0;whiteSpace=wrap;html=1;" vertex="1" parent="1">
          <mxGeometry x="410" y="380" width="270" height="172" as="geometry" />
        </mxCell>
        <mxCell id="yxRPQ6G-XhHfgrl9xgfs-10" value="render(optional callback)" style="text;strokeColor=none;fillColor=none;align=left;verticalAlign=middle;spacingLeft=4;spacingRight=4;overflow=hidden;points=[[0,0.5],[1,0.5]];portConstraint=eastwest;rotatable=0;whiteSpace=wrap;html=1;" vertex="1" parent="yxRPQ6G-XhHfgrl9xgfs-9">
          <mxGeometry y="30" width="270" height="30" as="geometry" />
        </mxCell>
        <mxCell id="yxRPQ6G-XhHfgrl9xgfs-11" value="cull(optional callback)" style="text;strokeColor=none;fillColor=none;align=left;verticalAlign=middle;spacingLeft=4;spacingRight=4;overflow=hidden;points=[[0,0.5],[1,0.5]];portConstraint=eastwest;rotatable=0;whiteSpace=wrap;html=1;" vertex="1" parent="yxRPQ6G-XhHfgrl9xgfs-9">
          <mxGeometry y="60" width="270" height="30" as="geometry" />
        </mxCell>
        <mxCell id="yxRPQ6G-XhHfgrl9xgfs-75" value="update&amp;lt;idx&amp;gt;(data)" style="text;strokeColor=none;fillColor=none;align=left;verticalAlign=middle;spacingLeft=4;spacingRight=4;overflow=hidden;points=[[0,0.5],[1,0.5]];portConstraint=eastwest;rotatable=0;whiteSpace=wrap;html=1;" vertex="1" parent="yxRPQ6G-XhHfgrl9xgfs-9">
          <mxGeometry y="90" width="270" height="30" as="geometry" />
        </mxCell>
        <mxCell id="yxRPQ6G-XhHfgrl9xgfs-23" value="getOutput&amp;lt;int&amp;gt;(): ??" style="text;strokeColor=none;fillColor=none;align=left;verticalAlign=top;spacingLeft=4;spacingRight=4;overflow=hidden;rotatable=0;points=[[0,0.5],[1,0.5]];portConstraint=eastwest;whiteSpace=wrap;html=1;" vertex="1" parent="yxRPQ6G-XhHfgrl9xgfs-9">
          <mxGeometry y="120" width="270" height="26" as="geometry" />
        </mxCell>
        <mxCell id="yxRPQ6G-XhHfgrl9xgfs-24" value="getAllOutput(): tuple&amp;lt;TBD&amp;gt;" style="text;strokeColor=none;fillColor=none;align=left;verticalAlign=top;spacingLeft=4;spacingRight=4;overflow=hidden;rotatable=0;points=[[0,0.5],[1,0.5]];portConstraint=eastwest;whiteSpace=wrap;html=1;" vertex="1" parent="yxRPQ6G-XhHfgrl9xgfs-9">
          <mxGeometry y="146" width="270" height="26" as="geometry" />
        </mxCell>
        <mxCell id="yxRPQ6G-XhHfgrl9xgfs-14" value="RenderSource&amp;lt;TBD&amp;gt;" style="swimlane;fontStyle=0;childLayout=stackLayout;horizontal=1;startSize=26;fillColor=none;horizontalStack=0;resizeParent=1;resizeParentMax=0;resizeLast=0;collapsible=1;marginBottom=0;html=1;" vertex="1" parent="1">
          <mxGeometry x="410" y="240" width="270" height="78" as="geometry" />
        </mxCell>
        <mxCell id="yxRPQ6G-XhHfgrl9xgfs-15" value="update&amp;lt;idx&amp;gt;(data)" style="text;strokeColor=none;fillColor=none;align=left;verticalAlign=top;spacingLeft=4;spacingRight=4;overflow=hidden;rotatable=0;points=[[0,0.5],[1,0.5]];portConstraint=eastwest;whiteSpace=wrap;html=1;" vertex="1" parent="yxRPQ6G-XhHfgrl9xgfs-14">
          <mxGeometry y="26" width="270" height="26" as="geometry" />
        </mxCell>
        <mxCell id="yxRPQ6G-XhHfgrl9xgfs-16" value="setVisible(bool)" style="text;strokeColor=none;fillColor=none;align=left;verticalAlign=top;spacingLeft=4;spacingRight=4;overflow=hidden;rotatable=0;points=[[0,0.5],[1,0.5]];portConstraint=eastwest;whiteSpace=wrap;html=1;" vertex="1" parent="yxRPQ6G-XhHfgrl9xgfs-14">
          <mxGeometry y="52" width="270" height="26" as="geometry" />
        </mxCell>
        <mxCell id="yxRPQ6G-XhHfgrl9xgfs-22" style="edgeStyle=orthogonalEdgeStyle;rounded=0;orthogonalLoop=1;jettySize=auto;html=1;entryX=0;entryY=0.25;entryDx=0;entryDy=0;exitX=0;exitY=0.5;exitDx=0;exitDy=0;" edge="1" parent="1" source="yxRPQ6G-XhHfgrl9xgfs-8" target="yxRPQ6G-XhHfgrl9xgfs-14">
          <mxGeometry relative="1" as="geometry">
            <mxPoint x="360" y="300" as="targetPoint" />
            <Array as="points">
              <mxPoint x="380" y="649" />
              <mxPoint x="380" y="260" />
            </Array>
          </mxGeometry>
        </mxCell>
        <mxCell id="yxRPQ6G-XhHfgrl9xgfs-25" value="Onion&amp;lt;Layers, PossibleTargets&amp;gt; (private)" style="swimlane;fontStyle=0;childLayout=stackLayout;horizontal=1;startSize=26;fillColor=none;horizontalStack=0;resizeParent=1;resizeParentMax=0;resizeLast=0;collapsible=1;marginBottom=0;html=1;" vertex="1" parent="1">
          <mxGeometry x="-120" y="380" width="320" height="78" as="geometry" />
        </mxCell>
        <mxCell id="yxRPQ6G-XhHfgrl9xgfs-26" value="sources: tuple&amp;lt;rendersource&amp;lt;varying&amp;gt;[], ...&amp;gt;" style="text;strokeColor=none;fillColor=none;align=left;verticalAlign=top;spacingLeft=4;spacingRight=4;overflow=hidden;rotatable=0;points=[[0,0.5],[1,0.5]];portConstraint=eastwest;whiteSpace=wrap;html=1;" vertex="1" parent="yxRPQ6G-XhHfgrl9xgfs-25">
          <mxGeometry y="26" width="320" height="26" as="geometry" />
        </mxCell>
        <mxCell id="yxRPQ6G-XhHfgrl9xgfs-27" value="targetLayouts: tuple-ishLookup&amp;lt;PossibleTarget...&amp;gt;" style="text;strokeColor=none;fillColor=none;align=left;verticalAlign=top;spacingLeft=4;spacingRight=4;overflow=hidden;rotatable=0;points=[[0,0.5],[1,0.5]];portConstraint=eastwest;whiteSpace=wrap;html=1;" vertex="1" parent="yxRPQ6G-XhHfgrl9xgfs-25">
          <mxGeometry y="52" width="320" height="26" as="geometry" />
        </mxCell>
        <mxCell id="yxRPQ6G-XhHfgrl9xgfs-30" style="edgeStyle=orthogonalEdgeStyle;rounded=0;orthogonalLoop=1;jettySize=auto;html=1;entryX=0;entryY=0.25;entryDx=0;entryDy=0;" edge="1" parent="1" source="yxRPQ6G-XhHfgrl9xgfs-26" target="yxRPQ6G-XhHfgrl9xgfs-14">
          <mxGeometry relative="1" as="geometry" />
        </mxCell>
        <mxCell id="yxRPQ6G-XhHfgrl9xgfs-32" value="PossibleTargetCache&amp;lt;PossibleTarget&amp;gt;" style="swimlane;fontStyle=0;childLayout=stackLayout;horizontal=1;startSize=30;horizontalStack=0;resizeParent=1;resizeParentMax=0;resizeLast=0;collapsible=1;marginBottom=0;whiteSpace=wrap;html=1;" vertex="1" parent="1">
          <mxGeometry x="-120" y="579" width="320" height="120" as="geometry" />
        </mxCell>
        <mxCell id="yxRPQ6G-XhHfgrl9xgfs-33" value="RenderPass[]" style="text;strokeColor=none;fillColor=none;align=left;verticalAlign=middle;spacingLeft=4;spacingRight=4;overflow=hidden;points=[[0,0.5],[1,0.5]];portConstraint=eastwest;rotatable=0;whiteSpace=wrap;html=1;" vertex="1" parent="yxRPQ6G-XhHfgrl9xgfs-32">
          <mxGeometry y="30" width="320" height="30" as="geometry" />
        </mxCell>
        <mxCell id="yxRPQ6G-XhHfgrl9xgfs-34" value="PipelineLayout" style="text;strokeColor=none;fillColor=none;align=left;verticalAlign=middle;spacingLeft=4;spacingRight=4;overflow=hidden;points=[[0,0.5],[1,0.5]];portConstraint=eastwest;rotatable=0;whiteSpace=wrap;html=1;" vertex="1" parent="yxRPQ6G-XhHfgrl9xgfs-32">
          <mxGeometry y="60" width="320" height="30" as="geometry" />
        </mxCell>
        <mxCell id="yxRPQ6G-XhHfgrl9xgfs-35" value="secondaryCommandBuffer(s), invalidate/re-record cycle, double buffered" style="text;strokeColor=none;fillColor=none;align=left;verticalAlign=middle;spacingLeft=4;spacingRight=4;overflow=hidden;points=[[0,0.5],[1,0.5]];portConstraint=eastwest;rotatable=0;whiteSpace=wrap;html=1;" vertex="1" parent="yxRPQ6G-XhHfgrl9xgfs-32">
          <mxGeometry y="90" width="320" height="30" as="geometry" />
        </mxCell>
        <mxCell id="yxRPQ6G-XhHfgrl9xgfs-36" style="edgeStyle=orthogonalEdgeStyle;rounded=0;orthogonalLoop=1;jettySize=auto;html=1;entryX=0.25;entryY=0;entryDx=0;entryDy=0;exitX=0;exitY=0.5;exitDx=0;exitDy=0;" edge="1" parent="1" source="yxRPQ6G-XhHfgrl9xgfs-27" target="yxRPQ6G-XhHfgrl9xgfs-32">
          <mxGeometry relative="1" as="geometry" />
        </mxCell>
        <mxCell id="yxRPQ6G-XhHfgrl9xgfs-41" style="edgeStyle=orthogonalEdgeStyle;rounded=0;orthogonalLoop=1;jettySize=auto;html=1;" edge="1" parent="1" source="yxRPQ6G-XhHfgrl9xgfs-37" target="yxRPQ6G-XhHfgrl9xgfs-32">
          <mxGeometry relative="1" as="geometry">
            <Array as="points">
              <mxPoint x="120" y="845" />
            </Array>
          </mxGeometry>
        </mxCell>
        <mxCell id="yxRPQ6G-XhHfgrl9xgfs-37" value="PossibleTarget" style="swimlane;fontStyle=0;childLayout=stackLayout;horizontal=1;startSize=30;horizontalStack=0;resizeParent=1;resizeParentMax=0;resizeLast=0;collapsible=1;marginBottom=0;whiteSpace=wrap;html=1;" vertex="1" parent="1">
          <mxGeometry x="410" y="770" width="270" height="150" as="geometry" />
        </mxCell>
        <mxCell id="yxRPQ6G-XhHfgrl9xgfs-38" value="OutputImageCount" style="text;strokeColor=none;fillColor=none;align=left;verticalAlign=middle;spacingLeft=4;spacingRight=4;overflow=hidden;points=[[0,0.5],[1,0.5]];portConstraint=eastwest;rotatable=0;whiteSpace=wrap;html=1;" vertex="1" parent="yxRPQ6G-XhHfgrl9xgfs-37">
          <mxGeometry y="30" width="270" height="30" as="geometry" />
        </mxCell>
        <mxCell id="yxRPQ6G-XhHfgrl9xgfs-39" value="OutputImageInfo[]" style="text;strokeColor=none;fillColor=none;align=left;verticalAlign=middle;spacingLeft=4;spacingRight=4;overflow=hidden;points=[[0,0.5],[1,0.5]];portConstraint=eastwest;rotatable=0;whiteSpace=wrap;html=1;" vertex="1" parent="yxRPQ6G-XhHfgrl9xgfs-37">
          <mxGeometry y="60" width="270" height="30" as="geometry" />
        </mxCell>
        <mxCell id="yxRPQ6G-XhHfgrl9xgfs-40" value="OutputBufferCount" style="text;strokeColor=none;fillColor=none;align=left;verticalAlign=middle;spacingLeft=4;spacingRight=4;overflow=hidden;points=[[0,0.5],[1,0.5]];portConstraint=eastwest;rotatable=0;whiteSpace=wrap;html=1;" vertex="1" parent="yxRPQ6G-XhHfgrl9xgfs-37">
          <mxGeometry y="90" width="270" height="30" as="geometry" />
        </mxCell>
        <mxCell id="yxRPQ6G-XhHfgrl9xgfs-48" value="OutputBufferInfo" style="text;strokeColor=none;fillColor=none;align=left;verticalAlign=middle;spacingLeft=4;spacingRight=4;overflow=hidden;points=[[0,0.5],[1,0.5]];portConstraint=eastwest;rotatable=0;whiteSpace=wrap;html=1;" vertex="1" parent="yxRPQ6G-XhHfgrl9xgfs-37">
          <mxGeometry y="120" width="270" height="30" as="geometry" />
        </mxCell>
        <mxCell id="yxRPQ6G-XhHfgrl9xgfs-42" value="Layer" style="swimlane;fontStyle=0;childLayout=stackLayout;horizontal=1;startSize=26;fillColor=none;horizontalStack=0;resizeParent=1;resizeParentMax=0;resizeLast=0;collapsible=1;marginBottom=0;html=1;" vertex="1" parent="1">
          <mxGeometry x="410" y="970" width="270" height="82" as="geometry" />
        </mxCell>
        <mxCell id="yxRPQ6G-XhHfgrl9xgfs-64" value="Layout" style="text;strokeColor=none;fillColor=none;align=left;verticalAlign=middle;spacingLeft=4;spacingRight=4;overflow=hidden;points=[[0,0.5],[1,0.5]];portConstraint=eastwest;rotatable=0;whiteSpace=wrap;html=1;" vertex="1" parent="yxRPQ6G-XhHfgrl9xgfs-42">
          <mxGeometry y="26" width="270" height="30" as="geometry" />
        </mxCell>
        <mxCell id="yxRPQ6G-XhHfgrl9xgfs-43" value="Shader[]" style="text;strokeColor=none;fillColor=none;align=left;verticalAlign=top;spacingLeft=4;spacingRight=4;overflow=hidden;rotatable=0;points=[[0,0.5],[1,0.5]];portConstraint=eastwest;whiteSpace=wrap;html=1;" vertex="1" parent="yxRPQ6G-XhHfgrl9xgfs-42">
          <mxGeometry y="56" width="270" height="26" as="geometry" />
        </mxCell>
        <mxCell id="yxRPQ6G-XhHfgrl9xgfs-2" value="Onion&amp;lt;Layers, PossibleTargets&amp;gt;" style="swimlane;fontStyle=0;childLayout=stackLayout;horizontal=1;startSize=26;fillColor=none;horizontalStack=0;resizeParent=1;resizeParentMax=0;resizeLast=0;collapsible=1;marginBottom=0;html=1;" vertex="1" parent="1">
          <mxGeometry x="410" y="580" width="270" height="162" as="geometry">
            <mxRectangle x="440" y="400" width="60" height="30" as="alternateBounds" />
          </mxGeometry>
        </mxCell>
        <mxCell id="yxRPQ6G-XhHfgrl9xgfs-7" value="makeRenderTarget&amp;lt;type&amp;gt;(size)" style="text;strokeColor=none;fillColor=none;align=left;verticalAlign=middle;spacingLeft=4;spacingRight=4;overflow=hidden;points=[[0,0.5],[1,0.5]];portConstraint=eastwest;rotatable=0;whiteSpace=wrap;html=1;" vertex="1" parent="yxRPQ6G-XhHfgrl9xgfs-2">
          <mxGeometry y="26" width="270" height="30" as="geometry" />
        </mxCell>
        <mxCell id="yxRPQ6G-XhHfgrl9xgfs-8" value="makeRenderSource&amp;lt;int layer, etc&amp;gt;()" style="text;strokeColor=none;fillColor=none;align=left;verticalAlign=top;spacingLeft=4;spacingRight=4;overflow=hidden;rotatable=0;points=[[0,0.5],[1,0.5]];portConstraint=eastwest;whiteSpace=wrap;html=1;" vertex="1" parent="yxRPQ6G-XhHfgrl9xgfs-2">
          <mxGeometry y="56" width="270" height="26" as="geometry" />
        </mxCell>
        <mxCell id="yxRPQ6G-XhHfgrl9xgfs-76" value="update&amp;lt;idx&amp;gt;(data)" style="text;strokeColor=none;fillColor=none;align=left;verticalAlign=top;spacingLeft=4;spacingRight=4;overflow=hidden;rotatable=0;points=[[0,0.5],[1,0.5]];portConstraint=eastwest;whiteSpace=wrap;html=1;" vertex="1" parent="yxRPQ6G-XhHfgrl9xgfs-2">
          <mxGeometry y="82" width="270" height="26" as="geometry" />
        </mxCell>
        <mxCell id="yxRPQ6G-XhHfgrl9xgfs-3" value="Layer[]" style="text;strokeColor=none;fillColor=none;align=left;verticalAlign=top;spacingLeft=4;spacingRight=4;overflow=hidden;rotatable=0;points=[[0,0.5],[1,0.5]];portConstraint=eastwest;whiteSpace=wrap;html=1;" vertex="1" parent="yxRPQ6G-XhHfgrl9xgfs-2">
          <mxGeometry y="108" width="270" height="24" as="geometry" />
        </mxCell>
        <mxCell id="yxRPQ6G-XhHfgrl9xgfs-49" value="PossibleTarget[]" style="text;strokeColor=none;fillColor=none;align=left;verticalAlign=middle;spacingLeft=4;spacingRight=4;overflow=hidden;points=[[0,0.5],[1,0.5]];portConstraint=eastwest;rotatable=0;whiteSpace=wrap;html=1;" vertex="1" parent="yxRPQ6G-XhHfgrl9xgfs-2">
          <mxGeometry y="132" width="270" height="30" as="geometry" />
        </mxCell>
        <mxCell id="yxRPQ6G-XhHfgrl9xgfs-21" style="edgeStyle=orthogonalEdgeStyle;rounded=0;orthogonalLoop=1;jettySize=auto;html=1;entryX=0;entryY=0.25;entryDx=0;entryDy=0;" edge="1" parent="1" source="yxRPQ6G-XhHfgrl9xgfs-7" target="yxRPQ6G-XhHfgrl9xgfs-9">
          <mxGeometry relative="1" as="geometry" />
        </mxCell>
        <mxCell id="yxRPQ6G-XhHfgrl9xgfs-50" style="edgeStyle=orthogonalEdgeStyle;rounded=0;orthogonalLoop=1;jettySize=auto;html=1;entryX=0;entryY=0.25;entryDx=0;entryDy=0;" edge="1" parent="1" source="yxRPQ6G-XhHfgrl9xgfs-49" target="yxRPQ6G-XhHfgrl9xgfs-37">
          <mxGeometry relative="1" as="geometry" />
        </mxCell>
        <mxCell id="yxRPQ6G-XhHfgrl9xgfs-51" style="edgeStyle=orthogonalEdgeStyle;rounded=0;orthogonalLoop=1;jettySize=auto;html=1;entryX=0;entryY=0.25;entryDx=0;entryDy=0;exitX=0;exitY=0.5;exitDx=0;exitDy=0;" edge="1" parent="1" source="yxRPQ6G-XhHfgrl9xgfs-3" target="yxRPQ6G-XhHfgrl9xgfs-42">
          <mxGeometry relative="1" as="geometry">
            <Array as="points">
              <mxPoint x="380" y="700" />
              <mxPoint x="380" y="991" />
            </Array>
          </mxGeometry>
        </mxCell>
        <mxCell id="yxRPQ6G-XhHfgrl9xgfs-52" value="Shader" style="swimlane;fontStyle=0;childLayout=stackLayout;horizontal=1;startSize=30;horizontalStack=0;resizeParent=1;resizeParentMax=0;resizeLast=0;collapsible=1;marginBottom=0;whiteSpace=wrap;html=1;" vertex="1" parent="1">
          <mxGeometry x="410" y="1330" width="270" height="90" as="geometry" />
        </mxCell>
        <mxCell id="yxRPQ6G-XhHfgrl9xgfs-53" value="ShaderModule[]" style="text;strokeColor=none;fillColor=none;align=left;verticalAlign=middle;spacingLeft=4;spacingRight=4;overflow=hidden;points=[[0,0.5],[1,0.5]];portConstraint=eastwest;rotatable=0;whiteSpace=wrap;html=1;" vertex="1" parent="yxRPQ6G-XhHfgrl9xgfs-52">
          <mxGeometry y="30" width="270" height="30" as="geometry" />
        </mxCell>
        <mxCell id="yxRPQ6G-XhHfgrl9xgfs-54" value="type" style="text;strokeColor=none;fillColor=none;align=left;verticalAlign=middle;spacingLeft=4;spacingRight=4;overflow=hidden;points=[[0,0.5],[1,0.5]];portConstraint=eastwest;rotatable=0;whiteSpace=wrap;html=1;" vertex="1" parent="yxRPQ6G-XhHfgrl9xgfs-52">
          <mxGeometry y="60" width="270" height="30" as="geometry" />
        </mxCell>
        <mxCell id="yxRPQ6G-XhHfgrl9xgfs-56" style="edgeStyle=orthogonalEdgeStyle;rounded=0;orthogonalLoop=1;jettySize=auto;html=1;entryX=0;entryY=0.25;entryDx=0;entryDy=0;" edge="1" parent="1" source="yxRPQ6G-XhHfgrl9xgfs-43" target="yxRPQ6G-XhHfgrl9xgfs-52">
          <mxGeometry relative="1" as="geometry">
            <Array as="points">
              <mxPoint x="380" y="1039" />
              <mxPoint x="380" y="1353" />
            </Array>
          </mxGeometry>
        </mxCell>
        <mxCell id="yxRPQ6G-XhHfgrl9xgfs-58" value="LayerLayout" style="swimlane;fontStyle=0;childLayout=stackLayout;horizontal=1;startSize=26;fillColor=none;horizontalStack=0;resizeParent=1;resizeParentMax=0;resizeLast=0;collapsible=1;marginBottom=0;html=1;" vertex="1" parent="1">
          <mxGeometry x="410" y="1130" width="270" height="108" as="geometry" />
        </mxCell>
        <mxCell id="yxRPQ6G-XhHfgrl9xgfs-59" value="inputs..." style="text;strokeColor=none;fillColor=none;align=left;verticalAlign=top;spacingLeft=4;spacingRight=4;overflow=hidden;rotatable=0;points=[[0,0.5],[1,0.5]];portConstraint=eastwest;whiteSpace=wrap;html=1;" vertex="1" parent="yxRPQ6G-XhHfgrl9xgfs-58">
          <mxGeometry y="26" width="270" height="26" as="geometry" />
        </mxCell>
        <mxCell id="yxRPQ6G-XhHfgrl9xgfs-60" value="outputs..." style="text;strokeColor=none;fillColor=none;align=left;verticalAlign=top;spacingLeft=4;spacingRight=4;overflow=hidden;rotatable=0;points=[[0,0.5],[1,0.5]];portConstraint=eastwest;whiteSpace=wrap;html=1;" vertex="1" parent="yxRPQ6G-XhHfgrl9xgfs-58">
          <mxGeometry y="52" width="270" height="26" as="geometry" />
        </mxCell>
        <mxCell id="yxRPQ6G-XhHfgrl9xgfs-61" value="inouts..." style="text;strokeColor=none;fillColor=none;align=left;verticalAlign=middle;spacingLeft=4;spacingRight=4;overflow=hidden;points=[[0,0.5],[1,0.5]];portConstraint=eastwest;rotatable=0;whiteSpace=wrap;html=1;" vertex="1" parent="yxRPQ6G-XhHfgrl9xgfs-58">
          <mxGeometry y="78" width="270" height="30" as="geometry" />
        </mxCell>
        <mxCell id="yxRPQ6G-XhHfgrl9xgfs-65" style="edgeStyle=orthogonalEdgeStyle;rounded=0;orthogonalLoop=1;jettySize=auto;html=1;entryX=1.015;entryY=0.115;entryDx=0;entryDy=0;entryPerimeter=0;exitX=1;exitY=0.5;exitDx=0;exitDy=0;" edge="1" parent="1" source="yxRPQ6G-XhHfgrl9xgfs-64" target="yxRPQ6G-XhHfgrl9xgfs-59">
          <mxGeometry relative="1" as="geometry" />
        </mxCell>
        <mxCell id="yxRPQ6G-XhHfgrl9xgfs-67" value="" style="swimlane;startSize=0;" vertex="1" parent="1">
          <mxGeometry x="350" y="180" width="510" height="1460" as="geometry" />
        </mxCell>
        <mxCell id="yxRPQ6G-XhHfgrl9xgfs-70" value="ShaderModule" style="swimlane;fontStyle=0;childLayout=stackLayout;horizontal=1;startSize=30;horizontalStack=0;resizeParent=1;resizeParentMax=0;resizeLast=0;collapsible=1;marginBottom=0;whiteSpace=wrap;html=1;" vertex="1" parent="yxRPQ6G-XhHfgrl9xgfs-67">
          <mxGeometry x="60" y="1310" width="270" height="90" as="geometry" />
        </mxCell>
        <mxCell id="yxRPQ6G-XhHfgrl9xgfs-71" value="code: char*" style="text;strokeColor=none;fillColor=none;align=left;verticalAlign=middle;spacingLeft=4;spacingRight=4;overflow=hidden;points=[[0,0.5],[1,0.5]];portConstraint=eastwest;rotatable=0;whiteSpace=wrap;html=1;" vertex="1" parent="yxRPQ6G-XhHfgrl9xgfs-70">
          <mxGeometry y="30" width="270" height="30" as="geometry" />
        </mxCell>
        <mxCell id="yxRPQ6G-XhHfgrl9xgfs-72" value="stage: enum" style="text;strokeColor=none;fillColor=none;align=left;verticalAlign=middle;spacingLeft=4;spacingRight=4;overflow=hidden;points=[[0,0.5],[1,0.5]];portConstraint=eastwest;rotatable=0;whiteSpace=wrap;html=1;" vertex="1" parent="yxRPQ6G-XhHfgrl9xgfs-70">
          <mxGeometry y="60" width="270" height="30" as="geometry" />
        </mxCell>
        <mxCell id="yxRPQ6G-XhHfgrl9xgfs-68" value="Application interface" style="text;html=1;align=center;verticalAlign=middle;resizable=0;points=[];autosize=1;strokeColor=none;fillColor=none;" vertex="1" parent="1">
          <mxGeometry x="485" y="178" width="130" height="30" as="geometry" />
        </mxCell>
        <mxCell id="yxRPQ6G-XhHfgrl9xgfs-74" style="edgeStyle=orthogonalEdgeStyle;rounded=0;orthogonalLoop=1;jettySize=auto;html=1;entryX=0;entryY=0.25;entryDx=0;entryDy=0;" edge="1" parent="1" source="yxRPQ6G-XhHfgrl9xgfs-53" target="yxRPQ6G-XhHfgrl9xgfs-70">
          <mxGeometry relative="1" as="geometry" />
        </mxCell>
      </root>
    </mxGraphModel>
  </diagram>
</mxfile>
